<?xml version="1.0" encoding="UTF-8"?>
<svg xmlns="http://www.w3.org/2000/svg" version="1.1" viewBox="0 0 1000 1000">
  <style xmlns="http://www.w3.org/2000/svg">
		path {
			fill: #000000;
		}
		@media (prefers-color-scheme: dark) {
			path {
				fill: #ffffff;
			}
		}
	</style>
  <path d="M188.52,301.44h84.59v183.37c0,18.45-.47,38.24-1.4,59.4-.94,21.16-2.24,42.59-3.92,64.29-1.68,21.7-3.56,42.77-5.6,63.2-2.06,20.44-4.4,38.79-7,55.07l-5.6-20.08c8.59-12.66,17.37-24.86,26.33-36.62,8.96-11.75,18.3-23.41,28.01-34.99,9.71-11.57,19.79-22.42,30.25-32.55l416.81-404.17,60.5,58.59-417.37,403.62c-10.46,10.13-21.67,19.89-33.61,29.3-11.96,9.41-24.09,18.36-36.41,26.85-12.33,8.5-24.84,17.09-37.54,25.77l-21.29-5.42c22.78-3.25,48.74-6.15,77.87-8.68,29.13-2.52,58.82-4.69,89.08-6.51,30.25-1.81,58.07-2.71,83.47-2.71h189.36v82.46H188.52v-500.19Z"/>
</svg>