<svg width="49" height="13" viewBox="0 0 49 13" fill="none" xmlns="http://www.w3.org/2000/svg">
    <g clip-path="url(#clip0_384_12)">
    <path d="M-0.0795454 10L-0.0795454 3.45455L0.892045 3.45455L0.892045 4.47727H0.977273C1.11364 4.12784 1.33381 3.85653 1.63778 3.66335C1.94176 3.46733 2.30682 3.36932 2.73295 3.36932C3.16477 3.36932 3.52415 3.46733 3.81108 3.66335C4.10085 3.85653 4.3267 4.12784 4.48864 4.47727H4.55682C4.72443 4.1392 4.97585 3.87074 5.31108 3.67188C5.64631 3.47017 6.0483 3.36932 6.51705 3.36932C7.10227 3.36932 7.58097 3.55256 7.95312 3.91903C8.32528 4.28267 8.51136 4.84943 8.51136 5.61932L8.51136 10H7.50568L7.50568 5.61932C7.50568 5.13636 7.37358 4.79119 7.10938 4.58381C6.84517 4.37642 6.53409 4.27273 6.17614 4.27273C5.71591 4.27273 5.35938 4.41193 5.10653 4.69034C4.85369 4.96591 4.72727 5.31534 4.72727 5.73864L4.72727 10L3.70455 10L3.70455 5.51705C3.70455 5.14489 3.58381 4.84517 3.34233 4.6179C3.10085 4.38778 2.78977 4.27273 2.40909 4.27273C2.14773 4.27273 1.90341 4.34233 1.67614 4.48153C1.4517 4.62074 1.26989 4.81392 1.13068 5.06108C0.994318 5.3054 0.926136 5.58807 0.926136 5.90909L0.926136 10H-0.0795454ZM12.0363 10.1534C11.6215 10.1534 11.2451 10.0753 10.907 9.91903C10.5689 9.75994 10.3005 9.53125 10.1016 9.23295C9.90276 8.93182 9.80332 8.56818 9.80332 8.14205C9.80332 7.76705 9.87719 7.46307 10.0249 7.23011C10.1726 6.99432 10.3701 6.80966 10.6172 6.67614C10.8644 6.54261 11.1371 6.44318 11.4354 6.37784C11.7366 6.30966 12.0391 6.25568 12.3431 6.21591C12.7408 6.16477 13.0633 6.12642 13.3104 6.10085C13.5604 6.07244 13.7422 6.02557 13.8559 5.96023C13.9724 5.89489 14.0306 5.78125 14.0306 5.61932V5.58523C14.0306 5.16477 13.9155 4.83807 13.6854 4.60511C13.4582 4.37216 13.113 4.25568 12.6499 4.25568C12.1698 4.25568 11.7934 4.3608 11.5207 4.57102C11.2479 4.78125 11.0562 5.00568 10.9454 5.24432L9.99082 4.90341C10.1613 4.50568 10.3886 4.19602 10.6726 3.97443C10.9596 3.75 11.2721 3.59375 11.6101 3.50568C11.9511 3.41477 12.2863 3.36932 12.6158 3.36932C12.8261 3.36932 13.0675 3.39489 13.3403 3.44602C13.6158 3.49432 13.8814 3.59517 14.1371 3.74858C14.3957 3.90199 14.6101 4.13352 14.7806 4.44318C14.9511 4.75284 15.0363 5.16761 15.0363 5.6875V10H14.0306V9.11364H13.9795C13.9113 9.25568 13.7976 9.40767 13.6386 9.5696C13.4795 9.73153 13.2678 9.86932 13.0036 9.98295C12.7394 10.0966 12.417 10.1534 12.0363 10.1534ZM12.1897 9.25C12.5874 9.25 12.9226 9.17188 13.1954 9.01563C13.4709 8.85938 13.6783 8.65767 13.8175 8.41051C13.9596 8.16335 14.0306 7.90341 14.0306 7.63068V6.71023C13.988 6.76136 13.8942 6.80824 13.7493 6.85085C13.6073 6.89062 13.4425 6.92614 13.255 6.95739C13.0704 6.9858 12.89 7.01136 12.7138 7.03409C12.5405 7.05398 12.3999 7.07102 12.292 7.08523C12.0306 7.11932 11.7863 7.17472 11.559 7.25142C11.3346 7.32528 11.1528 7.4375 11.0136 7.58807C10.8772 7.7358 10.809 7.9375 10.809 8.19318C10.809 8.54261 10.9383 8.80682 11.1968 8.9858C11.4582 9.16193 11.7891 9.25 12.1897 9.25ZM16.6319 10V3.45455L17.6035 3.45455V4.44318H17.6716C17.791 4.11932 18.0069 3.85653 18.3194 3.65483C18.6319 3.45312 18.9841 3.35227 19.3762 3.35227C19.45 3.35227 19.5424 3.35369 19.6532 3.35653C19.764 3.35937 19.8478 3.36364 19.9046 3.36932V4.39205C19.8705 4.38352 19.7924 4.37074 19.6702 4.35369C19.5509 4.33381 19.4245 4.32386 19.291 4.32386C18.9728 4.32386 18.6887 4.39062 18.4387 4.52415C18.1915 4.65483 17.9955 4.83665 17.8506 5.0696C17.7086 5.29972 17.6375 5.5625 17.6375 5.85795V10H16.6319ZM24.1135 3.45455V4.30682H20.7214V3.45455L24.1135 3.45455ZM21.71 1.88636L22.7157 1.88636V8.125C22.7157 8.40909 22.7569 8.62216 22.8393 8.7642C22.9245 8.90341 23.0325 8.99716 23.1632 9.04545C23.2967 9.09091 23.4373 9.11364 23.585 9.11364C23.6958 9.11364 23.7867 9.10795 23.8578 9.09659C23.9288 9.08239 23.9856 9.07102 24.0282 9.0625L24.2328 9.96591C24.1646 9.99148 24.0694 10.017 23.9473 10.0426C23.8251 10.071 23.6703 10.0852 23.4828 10.0852C23.1987 10.0852 22.9203 10.0241 22.6475 9.90199C22.3777 9.77983 22.1532 9.59375 21.9742 9.34375C21.7981 9.09375 21.71 8.77841 21.71 8.39773V1.88636ZM26.034 12.4545C25.8635 12.4545 25.7115 12.4403 25.578 12.4119C25.4445 12.3864 25.3521 12.3608 25.301 12.3352L25.5567 11.4489C25.801 11.5114 26.0169 11.5341 26.2044 11.517C26.3919 11.5 26.5581 11.4162 26.703 11.2656C26.8507 11.1179 26.9857 10.8778 27.1078 10.5455L27.2953 10.0341L24.8749 3.45455L25.9658 3.45455L27.7726 8.67045H27.8408L29.6476 3.45455H30.7385L27.9601 10.9545C27.8351 11.2926 27.6803 11.5724 27.4956 11.794C27.311 12.0185 27.0965 12.1847 26.8521 12.2926C26.6107 12.4006 26.3379 12.4545 26.034 12.4545ZM31.8259 10V3.45455H32.7975V4.44318H32.8657C32.985 4.11932 33.2009 3.85653 33.5134 3.65483C33.8259 3.45312 34.1782 3.35227 34.5702 3.35227C34.6441 3.35227 34.7364 3.35369 34.8472 3.35653C34.958 3.35937 35.0418 3.36364 35.0987 3.36932V4.39205C35.0646 4.38352 34.9864 4.37074 34.8643 4.35369C34.745 4.33381 34.6185 4.32386 34.485 4.32386C34.1668 4.32386 33.8827 4.39062 33.6327 4.52415C33.3856 4.65483 33.1896 4.83665 33.0447 5.0696C32.9026 5.29972 32.8316 5.5625 32.8316 5.85795V10H31.8259ZM47.1303 5.78977V6.72727L35.1303 6.72727V5.78977L47.1303 5.78977Z" fill="black"/>
    </g>
    <defs>
    <clipPath id="clip0_384_12">
    <rect width="49" height="13" fill="white"/>
    </clipPath>
    </defs>
    </svg>
    